name Walk10.mot
datacolumns 19
datarows 12
range 1.43000000 1.44100000
endheader

                time	   L_ground_force_vx	   L_ground_force_vy	   L_ground_force_vz	   L_ground_force_px	   L_ground_force_py	   L_ground_force_pz	   R_ground_force_vx	   R_ground_force_vy	   R_ground_force_vz	   R_ground_force_px	   R_ground_force_py	   R_ground_force_pz	   L_ground_torque_x	   L_ground_torque_y	   L_ground_torque_z	   R_ground_torque_x	   R_ground_torque_y	   R_ground_torque_z	
          1.43000000	          0.00000000	          0.00000000	          0.00000000	          0.00000000	          0.00000000	          0.00000000	         32.45432726	        506.18569366	         22.54047506	         -0.18682776	          0.00000000	          0.01105020	          0.00000000	          0.00000000	          0.00000000	          0.00000000	         -0.60143658	          0.00000000	
          1.43100000	          0.00000000	          0.00000000	          0.00000000	          0.00000000	          0.00000000	          0.00000000	         33.10491435	        508.41150051	         22.72032866	         -0.18684548	          0.00000000	          0.01105862	          0.00000000	          0.00000000	          0.00000000	          0.00000000	         -0.60489093	          0.00000000	
          1.43200000	          0.00000000	          0.00000000	          0.00000000	          0.00000000	          0.00000000	          0.00000000	         33.78642667	        510.45363915	         22.91719154	         -0.18677354	          0.00000000	          0.01114417	          0.00000000	          0.00000000	          0.00000000	          0.00000000	         -0.62223865	          0.00000000	
          1.43300000	          0.00000000	          0.00000000	          0.00000000	          0.00000000	          0.00000000	          0.00000000	         34.49599162	        512.34224012	         23.09878039	         -0.18665746	          0.00000000	          0.01127431	          0.00000000	          0.00000000	          0.00000000	          0.00000000	         -0.65087783	          0.00000000	
          1.43400000	          0.00000000	          0.00000000	          0.00000000	          0.00000000	          0.00000000	          0.00000000	         35.25610517	        514.15226320	         23.24922610	         -0.18653667	          0.00000000	          0.01143620	          0.00000000	          0.00000000	          0.00000000	          0.00000000	         -0.69238602	          0.00000000	
          1.43500000	          0.00000000	          0.00000000	          0.00000000	          0.00000000	          0.00000000	          0.00000000	         36.10175131	        515.94616134	         23.34696910	         -0.18640305	          0.00000000	          0.01159362	          0.00000000	          0.00000000	          0.00000000	          0.00000000	         -0.74108955	          0.00000000	
          1.43600000	          0.00000000	          0.00000000	          0.00000000	          0.00000000	          0.00000000	          0.00000000	         37.01987693	        517.76113734	         23.37107508	         -0.18624278	          0.00000000	          0.01168169	          0.00000000	          0.00000000	          0.00000000	          0.00000000	         -0.77744960	          0.00000000	
          1.43700000	          0.00000000	          0.00000000	          0.00000000	          0.00000000	          0.00000000	          0.00000000	         37.93559348	        519.62151486	         23.33562817	         -0.18608221	          0.00000000	          0.01168198	          0.00000000	          0.00000000	          0.00000000	          0.00000000	         -0.78551535	          0.00000000	
          1.43800000	          0.00000000	          0.00000000	          0.00000000	          0.00000000	          0.00000000	          0.00000000	         38.78035934	        521.54068398	         23.28558311	         -0.18596309	          0.00000000	          0.01165602	          0.00000000	          0.00000000	          0.00000000	          0.00000000	         -0.77035418	          0.00000000	
          1.43900000	          0.00000000	          0.00000000	          0.00000000	          0.00000000	          0.00000000	          0.00000000	         39.54189335	        523.51600432	         23.25734051	         -0.18589719	          0.00000000	          0.01168004	          0.00000000	          0.00000000	          0.00000000	          0.00000000	         -0.74944892	          0.00000000	
          1.44000000	          0.00000000	          0.00000000	          0.00000000	          0.00000000	          0.00000000	          0.00000000	         40.24593050	        525.53566967	         23.25969456	         -0.18586669	          0.00000000	          0.01177729	          0.00000000	          0.00000000	          0.00000000	          0.00000000	         -0.73536886	          0.00000000	
          1.44100000	          0.00000000	          0.00000000	          0.00000000	          0.00000000	          0.00000000	          0.00000000	         40.92890335	        527.59042040	         23.28745730	         -0.18584990	          0.00000000	          0.01192103	          0.00000000	          0.00000000	          0.00000000	          0.00000000	         -0.73164256	          0.00000000	
